
        <svg xmlns="http://www.w3.org/2000/svg" xmlns:xlink="http://www.w3.org/1999/xlink" version="1.1" width="3162.1621621621625" height="1288.2218680477495" viewBox="0 0 3162.1621621621625 1288.2218680477495">
			
			<g transform="scale(8.108108108108109) translate(10, 10)">
				<defs id="SvgjsDefs3541"><linearGradient id="SvgjsLinearGradient3546"><stop id="SvgjsStop3547" stop-color="#6d7cff" offset="0"/><stop id="SvgjsStop3548" stop-color="#ff51ff" offset="1"/></linearGradient><linearGradient id="SvgjsLinearGradient3549"><stop id="SvgjsStop3550" stop-color="#00ddff" offset="0"/><stop id="SvgjsStop3551" stop-color="#ff00d4" offset="1"/></linearGradient></defs><g id="SvgjsG3542" featureKey="2ou6gm-0" transform="matrix(1.4727540169772564,0,0,1.4727540169772564,-23.564067080691462,-4.270986789686812)" fill="#000"><path xmlns="http://www.w3.org/2000/svg" d="M71.1,19.5C69.7,10,61.7,2.9,51.9,2.9c-7.1,0-13.7,4-17,10.2c-0.8-0.2-1.6-0.3-2.5-0.3c-5.7,0-10.3,4.6-10.3,10.3  c0,0.9,0.1,1.8,0.3,2.6c-4,2.7-6.4,7.2-6.4,12c0,7.9,6.3,14.9,13.8,15.3c0,0,0,0,0.1,0h38.5c0,0,0.1,0,0.1,0  c8.6-0.6,15.4-8,15.4-16.9C83.9,28.1,78.5,21.2,71.1,19.5z M68.4,50.5H29.9c-6.2-0.4-11.4-6.2-11.4-12.8c0-4.3,2.3-8.3,6-10.4  c0.5-0.3,0.7-0.9,0.5-1.5c-0.3-0.8-0.5-1.7-0.5-2.7c0-4.3,3.5-7.8,7.8-7.8c0.9,0,1.8,0.2,2.7,0.5c0.6,0.2,1.3-0.1,1.5-0.6  c2.8-5.9,8.8-9.7,15.3-9.7c8.8,0,16,6.6,16.8,15.3c0.1,0.5,0.5,1,1,1.1C76.5,22.8,81.5,29,81.5,36C81.5,43.4,75.6,49.9,68.4,50.5z   M39.5,60.8c-0.7,0-1.2,0.5-1.2,1.2v10.8c0,2.3-1.8,4.1-4.1,4.1H28c-0.6-2.7-3-4.7-5.8-4.7c-3.3,0-6,2.7-6,6c0,3.3,2.7,6,6,6  c2.9,0,5.3-2,5.8-4.7h6.2c3.6,0,6.5-2.9,6.5-6.5V62.1C40.8,61.4,40.2,60.8,39.5,60.8z M22.2,81.7c-1.9,0-3.5-1.6-3.5-3.5  c0-1.9,1.6-3.5,3.5-3.5s3.5,1.6,3.5,3.5C25.7,80.1,24.1,81.7,22.2,81.7z M77.8,72.2c-2.9,0-5.3,2-5.8,4.7h-6.2  c-2.3,0-4.1-1.8-4.1-4.1l0-10.8c0-0.7-0.5-1.2-1.2-1.2s-1.2,0.5-1.2,1.2l0,10.8c0,3.6,2.9,6.5,6.5,6.5H72c0.6,2.7,3,4.7,5.8,4.7  c3.3,0,6-2.7,6-6C83.8,74.9,81.1,72.2,77.8,72.2z M77.8,81.7c-1.9,0-3.5-1.6-3.5-3.5c0-1.9,1.6-3.5,3.5-3.5s3.5,1.6,3.5,3.5  C81.3,80.1,79.8,81.7,77.8,81.7z M51.2,85.1v-23c0-0.7-0.5-1.2-1.2-1.2c-0.7,0-1.2,0.5-1.2,1.2v23c-2.8,0.6-4.9,3-4.9,6  c0,3.4,2.7,6.1,6.1,6.1s6.1-2.7,6.1-6.1C56.1,88.1,54,85.6,51.2,85.1z M50,94.6c-2,0-3.5-1.6-3.5-3.5s1.6-3.5,3.5-3.5  s3.5,1.6,3.5,3.5S52,94.6,50,94.6z"/></g><g id="SvgjsG3543" featureKey="nameFeature-0" transform="matrix(4.311831700134528,0,0,4.311831700134528,114.82580381027599,13.991375316803108)" fill="#000"><path d="M9.98 6 l1.66 0 l0 14 l-1.66 0 l0 -6.12 l-7.12 0 l0 6.12 l-1.66 0 l0 -14 l1.66 0 l0 6.32 l7.12 0 l0 -6.32 z M14.94 16.48 c0.6 1.38 1.8 2.26 3.4 2.26 c1.54 0 3.28 -0.9 3.28 -3.1 c0 -2.32 -2.02 -3.46 -4.6 -2.96 l3.3 -5.24 l-6.04 0 l0 -1.44 l8.48 0 l-3.52 5.48 c2.1 0.06 4.04 1.62 4.04 4.16 c0 2.86 -2.26 4.56 -4.94 4.56 c-2.34 0 -4.04 -1.28 -4.7 -3.02 z M26.939999999999998 18.44 l6.28 0 l0 1.56 l-7.94 0 l0 -14 l1.66 0 l0 12.44 z M36.879999999999995 18.44 l6.28 0 l0 1.56 l-7.94 0 l0 -14 l1.66 0 l0 12.44 z M52.019999999999996 5.800000000000001 c3.64 0 7.16 2.96 7.16 7.2 s-3.52 7.2 -7.16 7.2 c-3.66 0 -7.16 -2.96 -7.16 -7.2 s3.5 -7.2 7.16 -7.2 z M52.019999999999996 18.62 c2.74 0 5.44 -2.32 5.44 -5.62 s-2.7 -5.62 -5.44 -5.62 c-2.76 0 -5.44 2.32 -5.44 5.62 s2.68 5.62 5.44 5.62 z"/></g>
			</g>
		</svg>
	